<svg xmlns="http://www.w3.org/2000/svg">

    <symbol id="star" viewBox="0 0 25 24" fill="none">
        <path
            d="M11.2391 0.690968C11.5385 -0.230343 12.8419 -0.230344 13.1412 0.690967L15.3334 7.43768C15.4673 7.8497 15.8512 8.12866 16.2844 8.12866H23.3783C24.3471 8.12866 24.7498 9.36828 23.9661 9.93768L18.227 14.1074C17.8766 14.362 17.7299 14.8134 17.8638 15.2254L20.0559 21.9721C20.3553 22.8934 19.3008 23.6596 18.5171 23.0902L12.778 18.9205C12.4275 18.6658 11.9529 18.6658 11.6024 18.9205L5.86331 23.0902C5.07959 23.6596 4.02511 22.8934 4.32446 21.9721L6.5166 15.2254C6.65048 14.8134 6.50382 14.362 6.15333 14.1074L0.414236 9.93768C-0.369477 9.36828 0.0332974 8.12866 1.00202 8.12866H8.09593C8.52916 8.12866 8.91312 7.8497 9.04699 7.43768L11.2391 0.690968Z"
            fill="#111111" />
    </symbol>
    <symbol id="arrow-aslant" viewBox="0 0 26 25">
        <path fill-rule="evenodd" clip-rule="evenodd"
            d="M21.7891 22.3082L0.307926 1.72206C-0.0908173 1.33993 -0.104286 0.706913 0.277843 0.30817C0.659972 -0.0905732 1.29299 -0.104041 1.69174 0.278088L23.2778 20.9648V4.03351C23.2778 3.48122 23.7256 3.03351 24.2778 3.03351C24.8301 3.03351 25.2778 3.48122 25.2778 4.03351V23.3082C25.2778 23.8605 24.8301 24.3082 24.2778 24.3082H4.12229C3.57 24.3082 3.12229 23.8605 3.12229 23.3082C3.12229 22.7559 3.57 22.3082 4.12229 22.3082H21.7891Z" />
    </symbol>

</svg>